<svg width="160" height="109" viewBox="0 0 160 109" fill="none" xmlns="http://www.w3.org/2000/svg">
<g clip-path="url(#clip0_2250_8)">
<path d="M64.0748 0.802743C31.9093 5.44575 7.58249 22.0741 0.93315 43.9394C-0.580591 48.8523 -0.472458 59.9202 1.09533 64.9948C10.2313 94.0947 50.6141 112.721 93.6998 107.646C102.511 106.62 107.269 105.648 114.513 103.218C127.271 99.0613 138.191 92.6369 146.138 84.7006C153.76 77.1421 157.815 69.6379 159.436 60.3516C161.707 47.2325 156.301 32.9798 145.002 22.2361C133.542 11.3844 113.432 2.96227 93.1594 0.478814C86.8881 -0.277024 70.1838 -0.115059 64.0748 0.802743ZM91.5913 4.25801C107.107 5.82363 122.352 10.8986 134.136 18.5649C138.948 21.6422 146.084 28.3368 149.165 32.6018C160.247 48.2042 158.572 66.3986 144.732 81.0292C133.488 92.9066 116.675 100.519 94.1324 103.92C85.4826 105.216 68.6702 104.73 58.9395 102.841C44.83 100.141 32.2876 94.9584 22.4491 87.7237C12.0153 80.0037 5.96072 71.1495 3.69021 60.2979C2.6632 55.601 2.6632 52.7937 3.69021 48.0965C5.42025 39.7823 9.04211 33.2498 15.5832 26.7171C27.2062 14.9477 47.0461 6.36355 67.2107 4.31199C73.8601 3.66411 85.1583 3.61014 91.5913 4.25801Z" fill="#1E6B3A"/>
<path d="M91.3406 17.7662C89.846 18.272 89.3861 18.5939 87.0637 20.8013C84.0056 23.7445 81.3384 25.515 79.9817 25.515C79.6138 25.515 78.349 25.1701 77.1534 24.7792C75.4288 24.1584 74.6701 24.0205 73.1756 24.0434C71.037 24.0434 69.7955 24.5033 67.795 26.0439C64.369 28.6422 56.298 35.8393 51.4463 40.5991C48.4801 43.519 45.3761 46.3933 44.5942 46.9683C41.2373 49.4287 39.1447 49.0147 33.6722 44.8527C27.9698 40.5298 25.2566 40.1622 20.4739 43.0361C18.8643 44.0019 16.266 46.4162 14.3115 48.7387C12.2421 51.222 10.9545 52.0039 8.70109 52.1877C6.67762 52.3489 5.98781 52.6476 5.78087 53.4985C5.52794 54.4642 6.07979 59.224 6.74662 61.8222C11.1844 79.4814 30.0393 93.8294 56.4132 99.6468C59.4483 100.314 65.3807 101.233 69.3815 101.67C73.7504 102.13 87.2018 102.061 91.5244 101.555C112.909 99.0261 129.993 91.8749 141.536 80.608C147.652 74.6297 151.17 68.7662 153.033 61.3853C153.585 59.1777 153.654 58.58 153.654 54.4872C153.654 49.6814 153.424 48.072 152.228 44.3009C151.285 41.3117 150.204 40.622 146.41 40.5991C143.054 40.5991 140.248 41.5878 137.305 43.818C134.178 46.1864 132.223 46.8991 130.131 46.4162C129.165 46.1864 128.751 45.8414 126.406 43.3581C119.784 36.3681 118.036 34.9425 114.128 33.287C112.978 32.8042 111.667 32.2061 111.23 31.9993C110.034 31.4245 103.757 25.0552 101.619 22.2499C99.6413 19.6516 98.4918 18.6859 96.6752 18.0651C95.1116 17.5362 92.4902 17.3982 91.3406 17.7662ZM89.869 44.3698C94.4676 45.1977 98.3306 46.7153 101.803 49.0607C103.642 50.3252 105.712 52.0958 105.712 52.4408C105.712 52.6476 98.3076 59.0858 98.0548 59.0858C98.0089 59.0858 97.0891 58.511 96.0314 57.7983C91.7775 54.9241 89.2482 54.1422 84.2124 54.1422C81.5682 54.1422 80.6485 54.2341 79.0849 54.671C73.4976 56.1886 69.9563 59.5457 69.1058 64.1216C68.8067 65.7311 69.2207 67.8235 70.2094 69.8009C72.5548 74.4228 78.5561 77.3198 85.1322 76.9521C88.9262 76.745 92.4442 75.3886 95.6635 72.9283C97.2959 71.6865 97.1121 71.6405 100.423 74.3536C104.332 77.5729 105.022 78.1936 105.022 78.4237C105.022 78.6995 103.803 79.7804 101.596 81.4358C98.3076 83.9191 94.0999 85.6668 89.2253 86.5633C87.5006 86.8853 86.2361 86.9313 82.6719 86.8393C78.694 86.7474 77.9353 86.6555 75.475 86.0345C70.1634 84.6781 66.4843 82.7466 63.1272 79.5733C60.0691 76.699 58.3677 73.917 57.4249 70.2378C56.8268 67.8924 56.7809 63.7767 57.333 61.3393C58.9425 54.2801 64.9438 48.4399 73.4283 45.6346C78.4412 43.9789 84.8564 43.496 89.869 44.3698Z" fill="#1E6B3A"/>
<path d="M77.429 45.4042C71.3817 46.623 66.875 48.9454 63.058 52.7622C60.2757 55.5215 58.5283 58.8787 57.8613 62.6497C57.4936 64.834 57.7234 68.651 58.3442 70.6974C60.7126 78.3544 67.8408 83.9188 77.5442 85.6894C81.0162 86.3102 87.5923 86.2413 90.5355 85.5513C95.5251 84.3787 99.8939 82.1942 102.906 79.4121L103.987 78.4004L103.182 77.6874C101.159 75.8941 97.5255 73.1118 97.2038 73.1118C97.0197 73.1118 96.238 73.5487 95.4791 74.0545C89.9147 77.7794 84.0054 78.7451 78.1649 76.9058C74.624 75.7789 71.1519 73.1807 69.6341 70.4906C68.1855 67.984 67.8867 64.512 68.8755 61.9368C70.4849 57.6369 74.4398 54.8548 80.6253 53.59C82.2557 53.264 83.474 53.2557 84.7396 53.2856C85.8834 53.3126 87.0661 53.3436 88.627 53.682C91.6161 54.3027 93.2949 55.0387 96.1231 56.9242C97.1349 57.6139 98.0084 58.1657 98.0314 58.1657C98.0776 58.1657 99.0431 57.3611 100.17 56.3724C101.274 55.3837 102.722 54.1648 103.366 53.659C104.01 53.1761 104.539 52.6473 104.562 52.4864C104.562 52.1644 102.814 50.6009 101.251 49.5662C98.0084 47.4276 94.0994 45.91 89.9147 45.1744C86.7415 44.6226 80.7402 44.7375 77.429 45.4042Z" fill="#CD4040"/>
</g>
<defs>
<clipPath id="clip0_2250_8">
<rect width="160" height="108.582" fill="white"/>
</clipPath>
</defs>
</svg>
