<svg version="1.2" xmlns="http://www.w3.org/2000/svg" viewBox="0 0 110 86" width="110" height="86"><defs><clipPath clipPathUnits="userSpaceOnUse" id="cp1"><path d="m-493-6523h1920v9595h-1920z"/></clipPath></defs><style>.a{fill:#fff}</style><g clip-path="url(#cp1)"><path class="a" d="m24.6 85.1q0.1 0 0.1 0 0.3 0.2 0.6 0.2 0.2 0 0.4-0.1l28.9-7.9 28.9 7.9q0.2 0.1 0.3 0.1 0.4 0 0.7-0.2 0 0 0 0l24-14.6q0.3-0.3 0.5-0.7 0.2-0.4 0-0.8l-13.2-46.6q-0.1-0.3-0.3-0.5-0.2-0.2-0.5-0.3-0.3-0.2-0.6-0.1-0.3 0-0.5 0.1l-13.2 7.4c-0.3 0.2-0.5 0.5-0.6 0.8-0.1 0.4 0 0.7 0.1 1 0.2 0.3 0.5 0.5 0.8 0.6 0.3 0.1 0.7 0.1 1 0l11.7-6.6 12.5 43.9-21.3 13-5.1-40.5c0-0.3-0.2-0.6-0.5-0.8-0.2-0.3-0.6-0.4-0.9-0.3-0.4 0-0.7 0.2-0.9 0.5-0.2 0.3-0.3 0.6-0.3 1l5.1 40.5-26.4-7.1v-7.3c0-0.4-0.1-0.7-0.4-0.9-0.2-0.3-0.6-0.4-0.9-0.4-0.4 0-0.7 0.1-1 0.4-0.2 0.2-0.3 0.5-0.3 0.9v7.3l-26.4 7.1 5.1-40.5q0-0.3-0.1-0.5 0-0.3-0.2-0.5-0.2-0.2-0.4-0.4-0.2-0.1-0.5-0.1-0.2 0-0.5 0-0.3 0.1-0.5 0.3-0.2 0.1-0.3 0.3-0.1 0.3-0.2 0.5l-5 40.5-21.3-13 12.5-43.9 11.7 6.6c0.3 0.1 0.7 0.1 1 0 0.3-0.1 0.6-0.3 0.8-0.6 0.1-0.3 0.2-0.6 0.1-1-0.1-0.3-0.3-0.6-0.6-0.8l-13.2-7.4q-0.3-0.1-0.6-0.1-0.3-0.1-0.5 0.1-0.3 0.1-0.5 0.3-0.2 0.2-0.3 0.5l-13.3 46.6q-0.1 0.4 0.1 0.8 0.1 0.4 0.5 0.7z"/><path fill-rule="evenodd" class="a" d="m32 22.8c0-12.7 9.9-22.6 22.6-22.6 12.7 0 22.6 9.9 22.6 22.6 0 19.6-20.8 38.7-21.7 39.5-0.3 0.3-0.6 0.4-0.9 0.4-0.3 0-0.7-0.1-0.9-0.4-0.9-0.8-21.7-20.2-21.7-39.5zm2.6 0c0 15.9 16 32.7 20 36.7 4-3.9 19.9-20.5 19.9-36.7 0-11.4-8.5-20-19.9-20-11.4 0-20 8.6-20 20z"/><path fill-rule="evenodd" class="a" d="m54.6 34.8c-6.6 0-12-5.4-12-12 0-6.6 5.4-12 12-12 6.6 0 12 5.4 12 12 0 6.6-5.4 12-12 12zm9.3-12c0-5.1-4.2-9.3-9.3-9.3-5.1 0-9.3 4.2-9.3 9.3 0 5.1 4.2 9.3 9.3 9.3 5.1 0 9.3-4.2 9.3-9.3z"/></g></svg>