<svg width="21" height="21" viewBox="0 0 21 21" fill="none" xmlns="http://www.w3.org/2000/svg">
<path d="M2.29248 3.38788C2.29248 3.12262 2.39786 2.86822 2.58543 2.68064C2.773 2.49307 3.0274 2.3877 3.29267 2.3877H5.44608C5.68283 2.3878 5.91187 2.47189 6.09245 2.625C6.27303 2.77811 6.39344 2.99031 6.43227 3.22385L7.17241 7.6597C7.20777 7.87095 7.17438 8.08798 7.07715 8.27884C6.97992 8.4697 6.82399 8.62431 6.6323 8.7199L5.08401 9.49304C5.63922 10.869 6.4661 12.1188 7.51525 13.168C8.56439 14.2171 9.81426 15.044 11.1902 15.5992L11.9643 14.0509C12.0599 13.8594 12.2143 13.7036 12.405 13.6064C12.5956 13.5092 12.8124 13.4757 13.0235 13.5108L17.4594 14.2509C17.6929 14.2898 17.9051 14.4102 18.0582 14.5908C18.2113 14.7713 18.2954 15.0004 18.2955 15.2371V17.3905C18.2955 17.6558 18.1901 17.9102 18.0026 18.0978C17.815 18.2854 17.5606 18.3907 17.2953 18.3907H15.2949C8.11358 18.3907 2.29248 12.5696 2.29248 5.38826V3.38788Z" fill="#063841"/>
</svg>
