<svg version="1.2" xmlns="http://www.w3.org/2000/svg" viewBox="0 0 17 17" width="17" height="17"><defs><clipPath clipPathUnits="userSpaceOnUse" id="cp1"><path d="m-1620-32h1920v9595h-1920z"/></clipPath></defs><style>.a{fill:#b92125}</style><g clip-path="url(#cp1)"><path class="a" d="m0.3 1.1q0-0.4 0.3-0.7 0.3-0.3 0.7-0.3h2.1q0.4 0 0.7 0.3 0.2 0.2 0.3 0.6l0.7 4.4q0.1 0.3-0.1 0.6-0.1 0.3-0.4 0.5l-1.5 0.7c0.5 1.4 1.3 2.7 2.4 3.7 1 1.1 2.3 1.9 3.7 2.5l0.7-1.6q0.2-0.3 0.5-0.4 0.3-0.2 0.6-0.1l4.4 0.7q0.4 0.1 0.6 0.3 0.3 0.3 0.3 0.7v2.1q0 0.5-0.3 0.8-0.3 0.2-0.7 0.2h-2c-7.2 0-13-5.8-13-13z"/></g></svg>