<svg version="1.2" xmlns="http://www.w3.org/2000/svg" viewBox="0 0 78 86" width="78" height="86"><defs><clipPath clipPathUnits="userSpaceOnUse" id="cp1"><path d="m-1339-6534h1920v9595h-1920z"/></clipPath></defs><style>.a{fill:none;stroke:#fff;stroke-miterlimit:100;stroke-width:2}</style><g clip-path="url(#cp1)"><path class="a" d="m67.2 40.4c-0.8 0-1.6-0.3-2.1-0.9-0.6-0.6-0.9-1.4-0.9-2.2v-8.7c0-12.3-11.3-22.2-25-22.2-13.8 0-25.1 10-25.1 22.2v8.7c0 0.8-0.3 1.6-0.9 2.2-0.5 0.6-1.3 0.9-2.1 0.9-0.8 0-1.6-0.3-2.1-0.9-0.6-0.6-0.9-1.4-0.9-2.2v-8.7c0-15.6 13.9-28.4 31.1-28.4 17.1 0 31 12.8 31 28.4v8.7q0 0.6-0.2 1.2-0.2 0.6-0.6 1-0.5 0.4-1 0.7-0.6 0.2-1.2 0.2z"/><path fill-rule="evenodd" class="a" d="m59 69.4c-0.8 0-1.6-0.3-2.2-0.9-0.5-0.6-0.8-1.4-0.8-2.2v-29.2c0-0.8 0.3-1.6 0.9-2.2 0.5-0.5 1.3-0.8 2.1-0.8 10.5 0 19 7.9 19 17.7 0 9.7-8.5 17.6-19 17.6zm3-28.9v22.4c2.7-0.4 5.1-1.8 6.9-3.8 1.8-2.1 2.9-4.7 3-7.4-0.1-2.7-1.2-5.3-3-7.4-1.8-2-4.2-3.4-6.9-3.8zm-42.8 28.9c-10.5 0-19-8-19-17.7 0-9.8 8.5-17.6 19-17.6 0.8 0 1.6 0.3 2.2 0.9 0.5 0.6 0.8 1.3 0.8 2.2v29.1c0 0.8-0.3 1.6-0.8 2.2-0.6 0.6-1.4 0.9-2.2 0.9zm-3-28.9c-2.7 0.4-5.1 1.8-6.9 3.8-1.8 2.1-2.9 4.7-3 7.4 0.1 2.7 1.2 5.3 3 7.4 1.8 2 4.2 3.4 6.9 3.8z"/><path class="a" d="m58 79.4h-10.1c-0.8 0-1.5-0.3-2.1-0.9-0.6-0.6-0.9-1.3-0.9-2.2 0-0.8 0.3-1.6 0.9-2.1 0.6-0.6 1.3-0.9 2.1-0.9h10.1c1.6 0 3.1-0.7 4.2-1.8 1.1-1.1 1.7-2.7 1.7-4.3v-1.3c0-0.8 0.3-1.6 0.9-2.2 0.6-0.6 1.4-0.9 2.2-0.9 0.8 0 1.5 0.3 2.1 0.9 0.6 0.6 0.9 1.4 0.9 2.2v1.3c0 3.3-1.3 6.4-3.5 8.6-2.3 2.3-5.3 3.6-8.5 3.6z"/><path fill-rule="evenodd" class="a" d="m42.7 85.2h-6c-2.2 0-4.3-0.9-5.8-2.5-1.6-1.5-2.5-3.7-2.5-5.9v-0.4c0-2.2 0.9-4.3 2.5-5.9 1.5-1.6 3.6-2.5 5.8-2.5h6c2.2 0 4.4 0.9 5.9 2.5 1.6 1.6 2.4 3.7 2.4 5.9v0.4c0 2.2-0.8 4.3-2.4 5.9-1.5 1.6-3.7 2.5-5.9 2.5zm-5.9-11c-0.6 0-1.2 0.2-1.6 0.6-0.4 0.5-0.6 1-0.6 1.6v0.4c0 0.6 0.2 1.2 0.6 1.6 0.4 0.4 1 0.6 1.6 0.6h5.9c0.6 0 1.2-0.2 1.6-0.6 0.4-0.5 0.7-1 0.7-1.6v-0.4c0-0.6-0.3-1.1-0.7-1.6-0.4-0.4-1-0.6-1.6-0.6z"/></g></svg>