<svg version="1.2" xmlns="http://www.w3.org/2000/svg" viewBox="0 0 89 86" width="89" height="86"><defs><clipPath clipPathUnits="userSpaceOnUse" id="cp1"><path d="m-919-6530h1920v9595h-1920z"/></clipPath></defs><style>.a{fill:#fff}</style><g clip-path="url(#cp1)"><path fill-rule="evenodd" class="a" d="m4.9 15.7h36.7c1.3 0 2.5 0.5 3.4 1.4 0.8 0.8 1.4 2 1.4 3.3v52.2c0 1.3-0.6 2.5-1.4 3.3-0.9 0.9-2.1 1.4-3.4 1.4h-36.7c-1.3 0-2.5-0.5-3.4-1.4-0.8-0.8-1.4-2-1.4-3.3v-52.2c0-1.3 0.6-2.5 1.4-3.3q0.1-0.1 0.1-0.1c0.9-0.8 2-1.3 3.3-1.3zm36.7 2h-36.7c-0.7 0-1.4 0.3-1.8 0.8q-0.1 0-0.1 0c-0.5 0.5-0.8 1.2-0.8 1.9v52.2c0 0.7 0.3 1.4 0.8 1.9 0.5 0.5 1.2 0.8 1.9 0.8h36.7c0.7 0 1.4-0.3 1.9-0.8 0.5-0.5 0.8-1.2 0.8-1.9v-52.2c0-0.7-0.3-1.4-0.8-1.9-0.5-0.5-1.2-0.8-1.9-0.8z"/><path fill-rule="evenodd" class="a" d="m30.9 17.7h-15.2c-0.6 0-1.1-0.4-1.1-1v-15.5c0-0.5 0.5-1 1.1-1h15.2c0.5 0 1 0.5 1 1v15.5c0 0.6-0.5 1-1 1zm-14.2-2h13.1v-13.4h-13.1zm-9.8 59.6h5.4c0.6 0 1.1 0.4 1.1 1v5.1c0 1.1-0.4 2-1.1 2.7q-0.1 0-0.1 0.1c-0.7 0.6-1.6 1-2.6 1-1 0-2-0.4-2.7-1.1-0.7-0.7-1.1-1.6-1.1-2.7v-5.1c0-0.6 0.5-1 1.1-1zm4.4 2h-3.4v4.1c0 0.5 0.2 0.9 0.5 1.2 0.3 0.3 0.7 0.5 1.2 0.5 0.5 0 0.9-0.1 1.2-0.4v-0.1c0.3-0.3 0.5-0.7 0.5-1.2zm22.9-2h5.5c0.5 0 1 0.4 1 1v5.1c0 1-0.4 2-1.1 2.7-0.7 0.7-1.6 1.1-2.7 1.1-1 0-2-0.4-2.7-1.1-0.6-0.7-1.1-1.7-1.1-2.7v-5.1c0-0.6 0.5-1 1.1-1zm4.4 2h-3.4v4.1c0 0.5 0.2 0.9 0.5 1.2 0.3 0.3 0.7 0.5 1.2 0.5 0.5 0 0.9-0.2 1.2-0.5 0.3-0.3 0.5-0.7 0.5-1.2zm-32-19.5h33.3c0.6 0 1 0.5 1 1.1v10.1c0 0.5-0.4 1-1 1h-33.3c-0.6 0-1-0.5-1-1v-10.1c0-0.6 0.4-1.1 1-1.1zm32.3 2.1h-31.3v8h31.3zm-32.3-7.1c-0.6 0-1-0.4-1-1 0-0.6 0.4-1 1-1h33.3c0.6 0 1 0.4 1 1 0 0.6-0.4 1-1 1zm0-6.9c-0.6 0-1-0.5-1-1.1 0-0.5 0.4-1 1-1h33.3c0.6 0 1 0.5 1 1 0 0.6-0.4 1.1-1 1.1zm0-7c-0.6 0-1-0.4-1-1 0-0.6 0.4-1 1-1h33.3c0.6 0 1 0.4 1 1 0 0.6-0.4 1-1 1zm0-6.9c-0.6 0-1-0.5-1-1.1 0-0.5 0.4-1 1-1h33.3c0.6 0 1.1 0.5 1.1 1 0 0.6-0.5 1.1-1.1 1.1zm0-7c-0.6 0-1-0.4-1-1 0-0.6 0.4-1.1 1-1.1h33.3c0.6 0 1.1 0.5 1.1 1.1 0 0.6-0.5 1-1.1 1z"/><path class="a" d="m12.3 2.3c-0.6 0-1.1-0.5-1.1-1.1 0-0.5 0.5-1 1.1-1h22c0.5 0 1 0.5 1 1 0 0.6-0.5 1.1-1 1.1z"/><path fill-rule="evenodd" class="a" d="m55.7 30.2h28.7c1.1 0 2.1 0.4 2.9 1.2q0 0 0 0c0.7 0.7 1.1 1.7 1.1 2.8v40.9c0 1.1-0.4 2.1-1.1 2.8-0.8 0.7-1.8 1.1-2.9 1.1h-28.7c-1.1 0-2.1-0.4-2.8-1.1-0.7-0.7-1.2-1.7-1.2-2.8v-40.9c0-1.1 0.5-2.1 1.2-2.8q0-0.1 0-0.1c0.8-0.7 1.7-1.1 2.8-1.1zm28.7 2.1h-28.7c-0.5 0-1 0.2-1.3 0.5q0 0-0.1 0c-0.3 0.4-0.5 0.8-0.5 1.4v40.9c0 0.5 0.2 1 0.5 1.3 0.4 0.4 0.9 0.6 1.4 0.6h28.7c0.6 0 1-0.2 1.4-0.6 0.3-0.3 0.6-0.8 0.6-1.3v-40.9c0-0.5-0.2-1-0.6-1.3q0-0.1 0-0.1c-0.4-0.3-0.8-0.5-1.4-0.5z"/><path fill-rule="evenodd" class="a" d="m76 32.3h-11.9c-0.6 0-1-0.5-1-1.1v-12.1c0-0.6 0.4-1 1-1h11.9c0.6 0 1.1 0.4 1.1 1v12.1c0 0.6-0.5 1.1-1.1 1.1zm-10.9-2.1h9.9v-10.1h-9.9zm-7.9 46.8h4.3c0.6 0 1 0.5 1 1v4c0 0.9-0.3 1.7-0.9 2.3-0.6 0.6-1.4 0.9-2.3 0.9-0.8 0-1.6-0.3-2.2-0.9-0.6-0.6-0.9-1.4-0.9-2.3v-4c0-0.5 0.4-1 1-1zm3.3 2.1h-2.3v2.9c0 0.4 0.2 0.6 0.4 0.8 0.2 0.2 0.4 0.4 0.7 0.4 0.4 0 0.6-0.2 0.8-0.4 0.2-0.2 0.4-0.4 0.4-0.8zm18.1-2h4.3c0.6 0 1.1 0.4 1.1 1v4c0 0.9-0.4 1.7-1 2.3-0.5 0.6-1.3 0.9-2.2 0.9-0.9 0-1.7-0.3-2.3-0.9-0.5-0.6-0.9-1.4-0.9-2.3v-4c0-0.6 0.5-1 1-1zm3.3 2h-2.2v3c0 0.3 0.1 0.6 0.3 0.8 0.2 0.2 0.5 0.3 0.8 0.3 0.3 0 0.6-0.1 0.8-0.3 0.2-0.2 0.3-0.5 0.3-0.8zm-24.9-16.3h26.1c0.6 0 1.1 0.5 1.1 1.1v7.9c0 0.6-0.5 1-1.1 1h-26.1c-0.6 0-1-0.4-1-1v-7.9c0-0.6 0.4-1.1 1-1.1zm25.1 2.1h-24.1v5.9h24.1zm-25.1-5.6c-0.6 0-1-0.5-1-1 0-0.6 0.4-1.1 1-1.1h26.1c0.6 0 1.1 0.5 1.1 1.1 0 0.5-0.5 1-1.1 1zm0-6.9c-0.5 0-1-0.5-1-1 0-0.6 0.5-1.1 1-1.1h26.2c0.5 0 1 0.5 1 1.1 0 0.5-0.5 1-1 1zm0-6.9c-0.6 0-1.1-0.5-1.1-1 0-0.6 0.5-1.1 1.1-1.1h26.1c0.6 0 1 0.5 1 1.1 0 0.5-0.4 1-1 1zm0-6.9c-0.6 0-1-0.5-1-1 0-0.6 0.4-1.1 1-1.1h26.1c0.6 0 1 0.5 1 1.1 0 0.5-0.4 1-1 1z"/><path class="a" d="m61.4 20.1c-0.5 0-1-0.4-1-1 0-0.6 0.5-1 1-1h17.3c0.6 0 1 0.4 1 1 0 0.6-0.4 1-1 1z"/></g></svg>