<?xml version="1.0" standalone="no"?>
<!DOCTYPE svg PUBLIC "-//W3C//DTD SVG 20010904//EN"
 "http://www.w3.org/TR/2001/REC-SVG-20010904/DTD/svg10.dtd">
<svg version="1.0" xmlns="http://www.w3.org/2000/svg"
 width="64.000000pt" height="64.000000pt" viewBox="0 0 64.000000 64.000000"
 preserveAspectRatio="xMidYMid meet">

<g transform="translate(0.000000,64.000000) scale(0.100000,-0.100000)"
fill="#000000" stroke="none">
<path d="M238 506 c-26 -7 -65 -25 -87 -39 -32 -21 -53 -27 -95 -27 l-55 0 16
-29 c16 -27 16 -31 -1 -70 -37 -81 3 -173 88 -206 54 -21 99 -15 150 20 l37
25 11 -25 c14 -31 22 -31 36 0 l11 25 37 -25 c51 -35 96 -41 150 -20 85 33
125 125 88 206 -17 39 -17 43 -1 70 l16 29 -54 0 c-43 0 -64 6 -101 29 -75 48
-159 61 -246 37z m6 -145 c57 -58 35 -156 -42 -188 -76 -32 -157 26 -157 112
0 45 28 87 70 106 37 16 96 3 129 -30z m320 0 c57 -58 35 -156 -42 -188 -76
-32 -157 26 -157 112 0 45 28 87 70 106 37 16 96 3 129 -30z"/>
<path d="M105 335 c-60 -59 6 -158 84 -126 29 13 51 47 51 82 0 31 -44 69 -80
69 -19 0 -40 -9 -55 -25z m85 -30 c26 -32 -13 -81 -47 -59 -23 14 -28 41 -13
59 16 19 44 19 60 0z"/>
<path d="M144 289 c-10 -17 13 -36 27 -22 12 12 4 33 -11 33 -5 0 -12 -5 -16
-11z"/>
<path d="M425 335 c-60 -59 6 -158 84 -126 29 13 51 47 51 82 0 31 -44 69 -80
69 -19 0 -40 -9 -55 -25z m85 -30 c15 -18 10 -45 -12 -59 -35 -22 -74 27 -48
59 16 19 44 19 60 0z"/>
<path d="M464 289 c-10 -17 13 -36 27 -22 12 12 4 33 -11 33 -5 0 -12 -5 -16
-11z"/>
</g>
</svg>
